<?xml version="1.0" standalone="no"?>
<!DOCTYPE svg PUBLIC "-//W3C//DTD SVG 20010904//EN"
 "http://www.w3.org/TR/2001/REC-SVG-20010904/DTD/svg10.dtd">
<svg version="1.0" xmlns="http://www.w3.org/2000/svg"
 width="1539.000000pt" height="1323.000000pt" viewBox="0 0 1539.000000 1323.000000"
 preserveAspectRatio="xMidYMid meet">

<g transform="translate(0.000000,1323.000000) scale(0.100000,-0.100000)"
fill="#000000" stroke="none">
<path d="M0 6615 l0 -6615 7695 0 7695 0 0 6615 0 6615 -3846 0 c-3073 0
-3844 -3 -3838 -12 4 -7 38 -56 75 -108 488 -690 787 -1461 870 -2250 18 -163
18 -647 1 -805 -36 -330 -110 -670 -208 -955 -56 -164 -144 -377 -190 -459
-44 -80 -25 -65 27 20 352 587 1021 958 1727 959 869 1 1645 -545 1911 -1345
133 -399 133 -798 -1 -1205 -168 -514 -578 -955 -1092 -1174 -230 -99 -566
-178 -566 -133 0 6 43 34 96 61 174 88 340 231 445 384 69 100 145 261 176
379 25 91 27 112 27 298 0 185 -2 207 -27 300 -32 120 -126 313 -196 405 -104
137 -273 280 -421 355 -315 159 -707 165 -1029 14 -228 -107 -426 -292 -543
-509 -20 -36 -273 -611 -564 -1277 -290 -667 -531 -1210 -535 -1205 -4 4 -242
545 -529 1202 -286 657 -537 1227 -556 1265 -154 300 -443 523 -784 606 -80
20 -121 23 -265 23 -144 0 -185 -3 -265 -23 -463 -113 -809 -473 -901 -936
-18 -92 -18 -348 0 -440 73 -366 303 -669 641 -842 51 -27 95 -54 98 -61 6
-20 -69 -15 -197 14 -389 87 -726 271 -1000 545 -513 513 -694 1261 -470 1943
100 306 266 567 507 797 295 283 665 465 1091 536 130 22 483 25 606 5 616
-100 1129 -435 1436 -938 29 -46 54 -83 55 -81 2 2 -12 33 -31 69 -142 267
-287 719 -350 1090 -44 261 -58 433 -58 713 0 488 65 880 223 1355 154 465
389 921 683 1328 l66 92 -3844 0 -3845 0 0 -6615z m5482 44 c10 -13 429 -978
931 -2144 503 -1166 931 -2154 952 -2195 46 -91 99 -176 131 -211 l25 -26 -78
14 c-43 8 -145 32 -228 53 -922 234 -1518 814 -1671 1627 -13 73 -28 438 -97
2472 -8 223 -12 413 -9 423 6 23 20 19 44 -13z m4461 9 c4 -12 -73 -2416 -87
-2688 -19 -389 -177 -784 -438 -1095 -296 -353 -720 -600 -1273 -740 -94 -24
-194 -47 -224 -51 l-54 -7 40 51 c23 28 66 100 97 160 30 60 465 1059 965
2220 500 1161 917 2122 927 2136 18 28 39 34 47 14z"/>
</g>
</svg>
